<?xml version="1.0" encoding="UTF-8"?>
<svg id="Layer_1" data-name="Layer 1" xmlns="http://www.w3.org/2000/svg" viewBox="0 0 1910 827.33">
  <defs>
    <style>
      .cls-1 {
        fill: #099;
      }
    </style>
  </defs>
  <g>
    <g>
      <path class="cls-1" d="M1447.24,416.94c-2.48-8.44-8.23-15.54-15.99-19.71h0c-12.27-6.59-23.32-3.16-27.48-1.87-3.78,1.17-12.63,3.91-21.5,1.33-11.47-3.34-19.62-15.18-26.17-24.7l-.13-.19c-33.25-48.35-55.56-78.8-70.2-95.85-13.56-15.79-24.62-25.3-41.05-27.21-50.25-5.87-82.66,55.65-106.31,100.55-21.42,40.66-42.55,82.34-63.27,124.77-36.63,1.93-73.52,1.59-110.25-.9,10.88-14,18.97-27.44,24.61-38.11,8.36-15.81,3.22-35.84-12.33-44.69-16.24-9.25-36.78-3.13-45.37,13.3-11.68,22.33-38.16,62.22-84.32,78.57-16.32,5.78-34.81,12.33-51.54,4.71-14.06-6.4-22.01-19.56-26.32-30.07,5.24-5.11,10.4-10.28,15.4-15.57,12.21-12.92,12.61-33.47.16-46.15-13.15-13.38-34.64-13.04-47.37.49-11.94,12.7-24.74,24.85-38.05,36.12-15.39,13.03-34.53,29.24-53.39,42.17-16.01,10.98-25.91,15.48-31.38,17.33-1.03-4.63-2.11-12.78-2.03-26.44.11-19.15,2.39-42.19,4.58-64.47.51-5.12,1.01-10.21,1.48-15.23,2.34-24.7,4.16-49.7,5.53-74.93.44-2.54.57-5.09.41-7.6,4.41-87.62,3.01-178.14-4.23-270.13-1.42-18.08-17.28-31.55-35.31-30.16-18.08,1.42-31.58,17.24-30.16,35.31,5.63,71.48,7.62,142,5.99,210.84-.9,38.07-11.44,75.33-31.12,107.93-5.15,8.54-10.61,16.88-16.36,25-59.9,86.74-148.85,135.36-252.95,146.91-69.52,8.28-179.99,3.02-202.67-77.59-12.06-44.71,2.35-95.87,30.79-132,19.58-24.88,47.77-42.59,78.03-51.42,27.88-8.25,61.16-9.38,85.81,4.84,37.68,23.88,42.7,54.98,12.32,82.4-13.82-18.24-34.26-31.09-58.37-32.63-18.34-1.01-38.44,6.7-49.16,22.68-11.73,17.71-8.68,41.67,4.29,57.85,14.31,17.2,36.37,20.68,56.53,19.37,8.29-.69,16.43-2.04,24.34-4.11l.03.03c-2.98,27.7-34.42,42.67-60,39.63-31.44-3.98-56.94-26.25-75.1-51.8-9.96-13.78-30.88-1.57-23.59,13.95,22.55,45.84,73.37,84.72,127.07,74.23,34.6-6.73,65.83-31.98,71.71-68.17,1.6-8.9,1.72-17.95.53-26.82,17.22-12.18,32.13-27.39,41.37-47.4,20.27-43.74-1.43-92.42-39.12-118.3-57.32-38.23-133.79-20.17-187.56,15.16-34.41,22.21-61.62,55.61-77.01,93.44-19.75,47.94-23.49,105.09,1.19,152.52,68.84,127.75,303.46,100.12,410.7,39.35,44.38-24.25,83.02-57.19,115.37-95.6-.92,13.95-1.35,27.49-.81,39.98.63,14.51,2.56,58.68,37.22,75.01,7.97,3.75,16.26,5.48,24.85,5.48,32.36,0,69.06-24.44,109.14-56.96,10.31,17.03,26.07,34.42,49.99,45.32,15.06,6.86,29.85,9.32,43.58,9.32,23.54,0,43.96-7.23,57.23-11.94,10.25-3.63,19.79-8,28.67-12.9,2.85,1.24,5.91,2.11,9.15,2.51,44.99,5.5,90.48,7.88,135.8,7.15-11.57,24.64-22.98,49.48-34.21,74.47-7.61,16.92-.14,37.47,16.99,44.59,4.11,1.71,8.38,2.52,12.58,2.52,12.53,0,24.5-7.21,29.97-19.39,16.07-35.78,32.52-71.25,49.28-106.26,88.72-8.24,163.76-27.22,212.88-42.43,32.5-10.07,56.91-19.45,71.66-25.55,31.83-13.15,35.7-17.17,40.28-23.69l.06-.08c5.72-8.17,7.41-18.5,4.6-28.07v-.04ZM214.5,381.12c-5.36.05-13.64.13-18.03-5.32-.52-.65-3.11-3.87-2.19-7.21,1.08-3.89,6.14-5.27,7.34-5.6,8.45-2.3,16.47,3.9,18.46,5.44,2.1,1.62,5.61,4.8,8.37,10.23-5.76,1.99-10.66,2.42-13.95,2.45ZM1151.99,466.8c14.68-29.41,29.54-58.41,44.55-86.9,8.64-16.41,17.15-32.24,26.16-45.51,5.52-8.13,9.81-13.14,12.86-16.2,9.1,10.58,27.86,34.93,66.32,90.83l.13.19c3.81,5.54,8.9,12.94,15.7,20.49-42.76,13.53-99.91,28.17-165.72,37.1Z"/>
      <path class="cls-1" d="M636.27,612.72c-8.18.27-15.76,3.71-21.35,9.69-5.59,5.97-8.52,13.77-8.25,21.95.27,8.18,3.71,15.76,9.69,21.35,5.72,5.35,13.11,8.26,20.9,8.26.35,0,.69,0,1.04-.02,8.18-.27,15.76-3.71,21.35-9.69,5.59-5.97,8.52-13.77,8.25-21.94s-3.71-15.76-9.69-21.35c-5.97-5.59-13.78-8.51-21.95-8.25Z"/>
      <path class="cls-1" d="M1239.3,572.18c-8.18.27-15.76,3.71-21.35,9.69-5.59,5.97-8.52,13.77-8.25,21.94.27,8.18,3.71,15.76,9.69,21.35,5.72,5.35,13.11,8.26,20.9,8.26.35,0,.69,0,1.04-.02,8.18-.27,15.76-3.71,21.35-9.69,5.59-5.97,8.52-13.77,8.25-21.95-.27-8.18-3.71-15.76-9.69-21.35-5.97-5.59-13.78-8.51-21.95-8.25Z"/>
      <path class="cls-1" d="M869.79,349.31c.35,0,.69,0,1.04-.02,8.18-.27,15.76-3.71,21.35-9.69,5.59-5.97,8.52-13.77,8.25-21.95-.27-8.18-3.71-15.76-9.69-21.35-5.97-5.59-13.78-8.51-21.95-8.25-8.18.27-15.76,3.71-21.35,9.69-5.59,5.97-8.52,13.77-8.25,21.94.27,8.18,3.71,15.76,9.69,21.35,5.72,5.35,13.11,8.26,20.9,8.26Z"/>
    </g>
    <g>
      <path class="cls-1" d="M368.93,734.65c-.38-2.37-.86-4.78-1.43-7.17-1.07-4.5-2.72-7.41-5.03-8.89-2.17-1.39-5.29-2.11-9.59-2.22-.83,0-2.02-.02-3.59-.07-1.61-.05-3.34-.07-5.18-.07h-10.31c-4.5,0-7.51,2.26-8.73,6.64-.36,1.57-.3,3.15.18,4.7.46,1.52,1.26,2.88,2.37,4.04,1.1,1.16,2.52,2.07,4.21,2.68,1.7.62,3.57.84,5.53.61,1.98-.19,3.41-.33,4.3-.42.81-.08,1.53-.13,2.17-.13h6.52c1.11,0,1.67.1,1.92.17.13.31.39,1.06.7,2.75.63,3.89.88,8.17.75,12.73-.14,4.63-.51,9.35-1.11,14.04-.6,4.71-1.39,9.4-2.36,13.94-.97,4.56-1.98,8.9-2.99,12.87-.61,2.25-1.46,4.33-2.53,6.17-1.11,1.9-2.43,3.76-3.91,5.51-2.15,2.46-4.66,3.33-7.92,2.7-2.42-.44-3.9-1.32-4.55-2.71-.65-1.41-.38-3.34.83-5.75,3.17-6.49.8-10.08-1.75-11.94h0c-1.38-1.01-2.87-1.52-4.43-1.52-2.44,0-4.58,1.19-6.39,3.53-1.57,2.04-2.73,4.54-3.45,7.41-.71,2.85-.9,5.92-.54,9.14.36,3.33,1.5,6.35,3.39,8.97,2.16,2.98,5,5.3,8.44,6.9,3.39,1.57,6.91,2.36,10.47,2.36,2.64,0,5.27-.44,7.81-1.3,2.6-.89,4.98-2.34,7.1-4.35,2.79-2.79,5.28-5.82,7.41-9.01,2.18-3.27,3.83-7.02,4.92-11.18,1.44-5.93,2.63-10.69,3.64-14.56,1.03-3.96,1.87-7.85,2.49-11.55.62-3.73,1.05-7.74,1.29-11.94.24-4.21.26-9.48.07-15.7-.1-2.48-.34-4.97-.72-7.4Z"/>
      <path class="cls-1" d="M519.27,807.28c-.23-1.5-.38-3.02-.47-4.47-.28-7.25-.47-13.24-.56-17.78-.09-4.52-.09-8.24,0-11.05.09-2.79.21-4.97.34-6.48.14-1.56.26-3.03.35-4.4.1-1.43.15-2.97.15-4.56s-.14-3.93-.43-6.91c-.47-5.4-1.29-10.75-2.42-15.91-1.15-5.22-2.9-10.39-5.19-15.36-2.23-4.79-5.45-7.21-9.57-7.21-2.89,0-5.69,1.33-8.27,3.92-1.64,1.53-3.01,3.25-4.09,5.09l-3.04,5.23c-3.73,6.72-6.75,12.47-8.97,17.09-2.21,4.61-3.94,8.56-5.12,11.75-1.19,3.2-2.02,5.81-2.46,7.77-.44,1.95-.74,3.51-.94,4.77-.17,1.1-.38,2.03-.62,2.75-.15.43-.5,1.19-1.36,2.35-2,2.58-2.63,5.26-1.89,7.98.29,1.02.37,1.97.23,2.83-.18,1.13-.4,2.28-.67,3.41-.19.75-.52,2.12-.99,4.09-.47,1.98-.95,4.08-1.42,6.29l-1.33,6.24c-.45,2.09-.66,3.49-.68,4.41-.22,3.02.58,5.43,2.38,7.17,1.74,1.68,3.76,2.54,5.98,2.54,3.12,0,5.75-1.54,7.6-4.42.84-1.26,1.5-2.57,1.97-3.88.52-1.43.72-2.97.61-4.53-.17-2.83.13-5.62.91-8.29.86-2.97,1.54-6.02,2.03-9.12.12-.83.38-1.44.78-1.82.51-.48,1.23-.87,2.09-1.13,2.59-.71,5.24-1.21,7.87-1.48,2.65-.27,5.43-.5,8.26-.7,1.31-.08,2.12-.06,2.6-.01.07.19.16.52.24,1.06.22,1.57.31,4.28.26,8.04-.05,3.89-.07,9.53-.07,16.93,0,3.95,1.02,7.46,3.02,10.41,2.17,3.2,4.82,4.82,7.86,4.82,1.86,0,3.66-.67,5.32-1.97,4.19-3.23,4.63-7.53,1.2-12.14-.81-1.03-1.3-2.12-1.48-3.32ZM502.6,749.06c.77,4.6,1.02,9.41.75,14.24-.08,1-.15,1.8-.23,2.39-.09.05-.23.12-.44.19-.63.22-2,.54-4.92.81l-11.35,1.05c-.07,0-.14,0-.21.01.03-.11.06-.23.1-.37,1.47-5.22,3.4-10.84,5.75-16.7,2.13-5.29,4.64-10,7.54-14.09,1.31,4.15,2.32,8.34,3.01,12.47Z"/>
      <path class="cls-1" d="M690.86,715.56c-.86-1.22-1.91-2.13-3.11-2.71-2.82-1.33-5.97-1.04-8.48.84-1.55,1.16-2.52,2.82-2.91,5.05-.1.9-.16,1.83-.16,2.76s.05,1.92.15,2.99c.08.95.11,2.07.06,3.33-.05,1.27-.2,2.82-.47,4.61-1.03,6.94-1.72,13.14-2.05,18.41-.33,5.23-.68,10.35-1.05,15.34-.37,4.93-.98,10.14-1.81,15.48-.83,5.32-2.23,11.67-4.16,18.85-1.38,4.97-2.72,6.08-3.08,6.08-.26,0-1.26-.69-2.45-3.77-1.63-4.06-2.93-8.72-3.89-13.86-.97-5.23-1.79-10.68-2.43-16.21-.65-5.57-1.24-11.22-1.75-16.79-.52-5.67-1.07-10.95-1.62-15.69-.57-4.86-1.31-9.24-2.22-13.01-.97-4.02-2.27-7.02-3.97-9.14l-.02-.03c-2.18-2.63-4.5-3.97-6.91-3.97-3.28,0-6.35,2.34-9.12,6.96-2.46,4.09-4.72,9.38-6.72,15.73-1.98,6.28-3.7,13.37-5.12,21.08-1.41,7.72-2.46,15.41-3.11,22.85-.66,7.5-.87,14.57-.64,21.02.24,6.58,1.05,11.86,2.46,15.77.9,2.25,2.12,3.9,3.63,4.93,1.51,1.02,3.15,1.55,4.87,1.55,1.63,0,3.19-.38,4.66-1.14,1.46-.76,2.67-1.83,3.61-3.17.94-1.36,1.51-2.91,1.69-4.6.19-1.8-.26-3.62-1.32-5.38-1.15-1.97-1.88-4.84-2.18-8.53-.32-3.93-.39-8.1-.21-12.38.18-4.32.53-8.58,1.04-12.67.51-4.17.92-7.58,1.19-10.16.45-3.45,1.14-6.92,2.05-10.33.19-.73.39-1.46.59-2.21.42,5.39.9,10.75,1.44,16,.65,6.36,1.51,12.48,2.55,18.19,1.04,5.74,2.39,11.08,4,15.86,1.65,4.9,3.78,9.13,6.34,12.58,3.94,5.19,8.64,7.82,13.97,7.82,3.26,0,6.37-1.14,9.25-3.38,2.81-2.19,5.11-5.6,6.82-10.13,2.18-5.59,3.89-11.42,5.08-17.32,1.17-5.81,2.08-11.56,2.69-17.09.6-5.46,1.08-10.76,1.41-15.74.33-4.95.63-9.29.91-13.01.36-4.3.78-8.11,1.25-11.31.47-3.26.83-6.15,1.06-8.58.25-2.56.27-4.78.07-6.6-.23-2.04-.88-3.8-1.9-5.15Z"/>
      <path class="cls-1" d="M838.85,762.95c-2-1.5-3.89-2.61-5.6-3.28-1.45-.57-2.6-1.06-3.45-1.46.06-.07.12-.15.2-.23,1.5-1.6,2.98-3.19,4.44-4.79,1.44-1.58,2.91-3.16,4.45-4.82,1.27-1.48,2.27-3.18,2.96-5.04.7-1.88,1.02-3.88.97-5.95-.06-2.07-.48-4.12-1.26-6.1-.79-2.01-1.99-3.88-3.6-5.59-8.41-8.6-18.1-12.96-28.82-12.96-3.43,0-6.94.44-10.46,1.32-2.77.69-4.89,2.2-6.3,4.49-1.36,2.21-1.88,4.84-1.53,7.93.09.55.2,2.3-.1,7.91-.23,4.43-.56,9.71-.98,15.82-.42,6.12-.89,12.64-1.4,19.56-.51,6.92-1.01,13.45-1.47,19.57-.47,6.13-.87,11.42-1.19,15.86-.33,4.52-.49,7.34-.5,8.62-.06,4.21.83,7.19,2.72,9.11,1.45,1.47,3.39,2.21,5.78,2.21,1.4,0,3.05-.26,4.95-.79,5.89-1.8,11.54-4.15,16.78-6.96,5.28-2.83,10.28-6.45,14.87-10.76,2.76-2.57,5.38-5.26,7.79-8,2.46-2.8,4.69-5.99,6.65-9.5,2.66-4.92,3.49-9.74,2.44-14.34-1.04-4.59-3.86-8.58-8.35-11.84ZM825.62,738.08c-2.9,3.8-6.16,7.32-9.69,10.44-3.03,2.68-6.44,4.93-10.16,6.7.46-5.9.79-10.44,1-13.82.22-3.74.45-6.55.69-8.35.18-1.41.36-2.03.45-2.26.09-.03.27-.08.6-.12,3.51-.58,6.48-.2,9.09,1.19,2.81,1.5,5.57,3.4,8.33,5.79-.05.1-.14.24-.29.44ZM801.63,803.79c.65-6.31,1.14-11.51,1.48-15.47.32-3.79.77-6.79,1.34-8.9.49-1.82,1.17-3.11,2.01-3.81.93-.78,2.38-1.42,4.21-1.88.91-.18,1.79-.34,2.66-.48.82-.13,1.61-.28,2.39-.44,4.41.46,8.56,1.58,12.31,3.28,1.53.75,2.43,1.58,2.67,2.47.24.9-.12,2.09-1.09,3.54-3.44,5.16-7.41,9.73-11.79,13.56-4.34,3.81-9.36,6.92-14.92,9.25-.6.23-1.03.36-1.33.44-.03-.32-.03-.82.05-1.57Z"/>
      <path class="cls-1" d="M975.97,715.83c-1.53-.93-3.23-1.21-5.14-.8-1.34.34-2.89.53-4.61.57-1.8.05-3.59.02-5.31-.07-1.76-.09-3.29-.18-4.59-.28-1.77-.12-2.51-.08-3,.05-2.29.45-4.24,1.39-5.8,2.78-1.64,1.47-2.66,3.14-3.03,4.98-.38,1.93,0,3.81,1.11,5.62,1.07,1.73,2.92,3.12,5.52,4.14,1.3.48,1.45,1.13,1.48,1.75.27,3.52.22,7.57-.14,12.02-.37,4.54-.93,9.6-1.67,15.05-.75,5.52-1.59,11.55-2.52,18.09-.94,6.55-1.79,13.81-2.53,21.48-.16,1.16-.41,2.09-.77,2.76-.21.39-.79.76-1.64,1.05h0c-2.24.75-3.81,2.09-4.65,3.98-.79,1.75-1,3.54-.63,5.32.36,1.75,1.23,3.32,2.59,4.68,1.47,1.47,3.39,2.21,5.67,2.21h0c3.5.09,6.44.38,8.75.87,2.56.54,4.92.82,7.02.82,2.44,0,4.74-.67,6.86-2.01,1.64-1.05,2.81-2.33,3.49-3.81.67-1.47.92-2.95.73-4.42-.2-1.52-.92-2.91-2.13-4.13-1.16-1.16-2.8-1.98-4.89-2.45-3.19-.66-3.9-1.38-4.01-1.52-.06-.07-.58-.83-.27-3.81.47-3.92.89-7.93,1.27-11.91.36-3.87.83-7.88,1.39-11.9,1.03-7.14,2.17-14.25,3.36-21.13,1.23-7.12,1.76-14.48,1.57-21.82,0-.78.09-1.15.13-1.3.21-.15.51-.27.89-.36l2.67-.63c1.33-.31,2.61-1.04,3.93-2.24,1.57-1.45,2.49-3.14,2.74-5.02.24-1.77.02-3.44-.65-4.95-.68-1.55-1.75-2.78-3.19-3.66Z"/>
      <path class="cls-1" d="M1131.28,721.59c-1.64-2.13-3.87-3.25-6.46-3.25s-4.9,1.19-6.93,3.57c-1.04,1.3-2.8,3.03-5.21,5.14-2.51,2.18-5.24,4.45-8.14,6.75-2.95,2.34-5.86,4.59-8.66,6.7-2.53,1.91-4.72,3.46-6.53,4.61-.02-.34-.03-.77-.02-1.31.04-1.63.25-3.8.61-6.44.38-2.72.76-5.86,1.13-9.27.54-4.13-.08-7.3-1.86-9.43-1.8-2.16-3.98-3.26-6.48-3.26-1.84,0-3.37.44-4.57,1.3-1.1.8-1.96,1.79-2.57,2.95-.57,1.08-.97,2.31-1.19,3.63-.2,1.18-.35,2.38-.44,3.59-.28,4.83-.58,8.86-.9,11.97-.33,3.17-.65,6.13-.98,8.88-.33,2.76-.68,5.6-1.05,8.54-.37,2.96-.8,6.69-1.26,11.17-.37,3.18-.66,6.41-.85,9.59-.19,3.11-.47,6.26-.83,9.36h0c-.54,4.91-1.08,9.38-1.61,13.3-.52,3.86-.85,7.22-1,9.99-.16,2.98.06,5.36.65,7.3.68,2.24,2.12,3.89,4.06,4.74,1.03.51,2.23.78,3.58.78,1.56,0,3.06-.39,4.44-1.18,1.28-.72,2.4-1.66,3.35-2.77,1-1.18,1.69-2.52,2.04-4,.38-1.57.26-3.18-.33-4.7-.35-1.05-.61-1.99-.78-2.79-.1-.49-.2-1.45-.1-3.25.09-1.58.32-3.87.69-6.81.27-2.18.64-4.99,1.12-8.41,1.04,1.03,2.02,1.99,2.94,2.88,1.72,1.68,3.43,3.36,5.1,5.04,2.42,2.42,5.22,5.29,8.39,8.6,3.23,3.37,6.27,6.2,9.03,8.38,3.36,2.73,7.46,3,10.37.82,1.25-.94,2.15-2.13,2.66-3.53.5-1.39.57-2.96.22-4.69-.37-1.77-1.38-3.43-2.97-4.92-.09-.09-.51-.51-1.28-1.28l-.52-.52c-1.13-1.13-2.58-2.56-4.37-4.3-1.77-1.72-3.74-3.7-5.93-5.93-2.21-2.26-4.44-4.49-6.7-6.69l-6.53-6.39c-2.11-2.07-3.97-3.85-5.57-5.36-.99-.93-1.41-1.49-1.59-1.76.17-.31.61-.95,1.67-2.08,1.76-1.85,4.73-4.27,8.82-7.18,4.22-3,8.62-6.19,13.22-9.56,4.61-3.39,8.91-6.86,12.78-10.29,4.11-3.66,6.72-6.96,7.96-10.06,1.66-3.93.58-6.6-.61-8.15Z"/>
    </g>
  </g>
  <g>
    <g>
      <g>
        <path class="cls-1" d="M1673.4,269.06c-32.49,0-58.92-26.43-58.92-58.92s26.43-58.92,58.92-58.92,58.92,26.43,58.92,58.92-26.43,58.92-58.92,58.92ZM1673.4,187.61c-12.42,0-22.53,10.11-22.53,22.53s10.11,22.53,22.53,22.53,22.53-10.11,22.53-22.53-10.11-22.53-22.53-22.53Z"/>
        <path class="cls-1" d="M1850.28,338.79c-25.53,0-46.31-20.77-46.31-46.31s20.77-46.31,46.31-46.31,46.31,20.77,46.31,46.31-20.77,46.31-46.31,46.31ZM1850.28,274.77c-9.76,0-17.71,7.94-17.71,17.71s7.94,17.71,17.71,17.71,17.71-7.94,17.71-17.71-7.94-17.71-17.71-17.71Z"/>
      </g>
      <path class="cls-1" d="M1772.74,618.72c-46.65-5.71-92.54-25.97-126.04-59.63-60.33-60.91-88.55-183.34-21.63-249.31,24.26-23.64,61.6-38.15,95.47-27.03,54.9,17.78,86.3,89.15,76.14,143.25-2.39,13.43-10.44,29.65-23.45,37.46-33.53,19.61-70.07,1.62-74.57-36.59-4.27-47.73,42.49-85.91,87.16-87.96,36.17-2.06,66.15,19.68,78.52,53.12,19.3,48.27-8.32,98.62-46.24,128.37-8.99,7.02-18.52,13.16-28.38,18.55-15.72,7.93-28.4-13.71-13.92-23.56,8.32-5.24,16.22-11.05,23.46-17.45,29.09-25.45,51.08-67.81,26.32-103.26-11.11-16.28-29.94-20.95-48.47-14.91-14.46,4.64-27.76,14.86-34.06,28.69-2.29,5.28-3.32,9.44-2.07,14.56.31,1.88,2.12,5.06,2.4,4.88.14.06.07-.04.1-.07,1.37.17,3.79-.2,5.4-1.07,1-.54.84-.64,1.61-1.81,6.67-15.2,1.62-40.17-5.15-55.38-10.21-22.57-30.45-48.26-57.52-41.45-11.66,2.83-24.42,11.68-32.68,21.14-11.65,13.95-17.01,32.3-18.22,50.75-2.9,44.61,14.99,92.37,45.66,123.77,19.05,19.38,43.41,32.98,69.55,40.54,8.88,2.69,18,4.67,27.24,6.05,31.44,5.89,25.32,51.08-6.62,48.35h0Z"/>
    </g>
    <path class="cls-1" d="M1742.1,676.1c-32.57-.36-69.21-5.56-98.01-13.91-36.87-10.69-54.95-24.08-55.26-40.95-.32-17.4,17.54-30.72,59.75-44.56,6.37-2.09,13.23,1.38,15.32,7.76,2.09,6.37-1.38,13.23-7.75,15.32-34.1,11.18-41.37,18.98-42.8,21.1,2.02,3.05,12.42,11.26,41.7,19.2,26.04,7.05,58.68,11.45,87.32,11.77,31.56.36,67.27-4.1,95.52-11.91,34.05-9.4,42.45-19.27,42.83-21.26-.01-.07-1.99-7.59-30.07-19.91-6.14-2.7-8.93-9.86-6.24-16,2.69-6.14,9.86-8.93,16-6.24,19.55,8.58,45.44,22.38,44.57,43.08-1.71,40.42-103.06,56.53-159.71,56.53-1.07,0-2.13,0-3.18-.02Z"/>
  </g>
</svg>